<svg width="68" height="12" viewBox="0 0 68 12" fill="none" xmlns="http://www.w3.org/2000/svg">
<g clip-path="url(#clip0_21_38)">
<path d="M5.80484 0.725586L4.15408 4.07065L0.464355 4.60397L3.1346 7.20891L2.50332 10.8841L5.80484 9.14992L9.10637 10.8841L8.47509 7.20891L11.1453 4.6076L7.4556 4.07065L5.80484 0.725586Z" fill="#FFB400"/>
</g>
<g clip-path="url(#clip1_21_38)">
<path d="M19.9025 0.725586L18.2517 4.07065L14.562 4.60397L17.2323 7.20891L16.601 10.8841L19.9025 9.14992L23.204 10.8841L22.5727 7.20891L25.243 4.6076L21.5533 4.07065L19.9025 0.725586Z" fill="#FFB400"/>
</g>
<g clip-path="url(#clip2_21_38)">
<path d="M33.9999 0.725586L32.3491 4.07065L28.6594 4.60397L31.3297 7.20891L30.6984 10.8841L33.9999 9.14992L37.3014 10.8841L36.6702 7.20891L39.3404 4.6076L35.6507 4.07065L33.9999 0.725586Z" fill="#FFB400"/>
</g>
<g clip-path="url(#clip3_21_38)">
<path d="M48.0976 0.725586L46.4468 4.07065L42.7571 4.60397L45.4273 7.20891L44.796 10.8841L48.0976 9.14992L51.3991 10.8841L50.7678 7.20891L53.4381 4.6076L49.7483 4.07065L48.0976 0.725586Z" fill="#FFB400"/>
</g>
<g clip-path="url(#clip4_21_38)">
<path d="M62.195 0.725586L60.5442 4.07065L56.8545 4.60397L59.5247 7.20891L58.8935 10.8841L62.195 9.14992L65.4965 10.8841L64.8652 7.20891L67.5355 4.6076L63.8457 4.07065L62.195 0.725586Z" fill="#FFB400"/>
</g>
<defs>
<clipPath id="clip0_21_38">
<rect width="11.6098" height="11.6098" fill="white"/>
</clipPath>
<clipPath id="clip1_21_38">
<rect width="11.6098" height="11.6098" fill="white" transform="translate(14.0977)"/>
</clipPath>
<clipPath id="clip2_21_38">
<rect width="11.6098" height="11.6098" fill="white" transform="translate(28.1951)"/>
</clipPath>
<clipPath id="clip3_21_38">
<rect width="11.6098" height="11.6098" fill="white" transform="translate(42.2927)"/>
</clipPath>
<clipPath id="clip4_21_38">
<rect width="11.6098" height="11.6098" fill="white" transform="translate(56.3901)"/>
</clipPath>
</defs>
</svg>
